<svg width="182" height="62" viewBox="0 0 182 62" fill="none" xmlns="http://www.w3.org/2000/svg">
<path d="M63.272 12.6651H73.4079V36.5828C73.4079 39.4266 72.7273 41.8877 71.3661 43.9659C70.0171 46.0319 68.1334 47.6301 65.7148 48.7604C63.2963 49.8785 60.4889 50.4375 57.2926 50.4375C54.072 50.4375 51.2524 49.8785 48.8339 48.7604C46.4154 47.6301 44.5317 46.0319 43.1826 43.9659C41.8458 41.8877 41.1773 39.4266 41.1773 36.5828V12.6651H51.3132V35.7077C51.3132 36.8623 51.5684 37.8953 52.0789 38.8068C52.5893 39.7062 53.2942 40.4111 54.1935 40.9215C55.105 41.4319 56.1381 41.6871 57.2926 41.6871C58.4593 41.6871 59.4924 41.4319 60.3917 40.9215C61.291 40.4111 61.9959 39.7062 62.5064 38.8068C63.0168 37.8953 63.272 36.8623 63.272 35.7077V12.6651ZM78.2251 50V12.6651H88.361V41.833H103.455V50H78.2251ZM107.553 50V12.6651H117.688V27.7595H118.199L129.428 12.6651H141.241L128.626 29.2908L141.533 50H129.428L121.043 35.9994L117.688 40.3746V50H107.553ZM142.718 12.6651H154.021L161.313 27.8324H161.604L168.896 12.6651H180.199L166.49 38.2599V50H156.427V38.2599L142.718 12.6651Z" fill="url(#paint0_linear_58_19975)"/>
<path d="M37.3738 39.8665C37.3738 41.3074 37.1192 42.7153 36.6099 44.0902C36.1007 45.4682 35.2769 46.6904 34.1386 47.7598C33.0002 48.8293 31.5114 49.692 29.6662 50.351C27.8269 51.0071 25.5981 51.3366 22.98 51.3366H0.228516V39.7466C0.228516 37.5689 0.671862 35.7026 1.56155 34.1449L2.13371 34.8788L2.94551 35.9213L4.59608 38.0392L4.63502 38.0871L9.08647 32.036L10.9797 29.4658L11.5998 28.621C12.5314 28.5162 13.5139 28.4623 14.5474 28.4623H16.89V25.4937L24.5317 31.9761L16.89 38.4585V35.2443H13.1665C11.7615 35.2443 10.5843 35.7056 9.64065 36.6312C8.69404 37.5569 8.22374 38.6353 8.22374 39.8665V44.5546H24.1423C25.694 44.5546 26.9551 44.1112 27.9227 43.2305C28.8933 42.3438 29.3786 41.1845 29.3786 39.7466C29.3786 39.1865 29.2558 38.7701 29.2318 38.6742C28.9442 37.6138 28.2972 36.9008 27.8778 36.5204C28.9772 36.3766 30.5798 36.0261 32.3083 35.1125C33.4166 34.5253 34.2794 33.8633 34.9174 33.2912C35.5165 34.1179 35.9179 34.8579 36.1756 35.3971C36.6219 36.3227 37.3738 37.8564 37.3738 39.8665Z" fill="url(#paint1_linear_58_19975)"/>
<path d="M37.3738 39.8665C37.3738 41.3074 37.1192 42.7153 36.6099 44.0902C36.1007 45.4682 35.2769 46.6904 34.1386 47.7598C33.0002 48.8293 31.5114 49.692 29.6662 50.351C27.8269 51.0071 25.5981 51.3366 22.98 51.3366H0.228516V39.7466C0.228516 37.5689 0.671862 35.7026 1.56155 34.1449L2.13371 34.8788L2.94551 35.9213L4.59608 38.0392L4.63502 38.0871L9.08647 32.036L10.9797 29.4658L11.5998 28.621C12.5314 28.5162 13.5139 28.4623 14.5474 28.4623H16.89V25.4937L24.5317 31.9761L16.89 38.4585V35.2443H13.1665C11.7615 35.2443 10.5843 35.7056 9.64065 36.6312C8.69404 37.5569 8.22374 38.6353 8.22374 39.8665V44.5546H24.1423C25.694 44.5546 26.9551 44.1112 27.9227 43.2305C28.8933 42.3438 29.3786 41.1845 29.3786 39.7466C29.3786 39.1865 29.2558 38.7701 29.2318 38.6742C28.9442 37.6138 28.2972 36.9008 27.8778 36.5204C28.9772 36.3766 30.5798 36.0261 32.3083 35.1125C33.4166 34.5253 34.2794 33.8633 34.9174 33.2912C35.5165 34.1179 35.9179 34.8579 36.1756 35.3971C36.6219 36.3227 37.3738 37.8564 37.3738 39.8665Z" fill="#212121"/>
<path d="M37.3738 24.0229C37.3738 25.3799 37.1192 26.7249 36.6099 28.061C36.1007 29.397 35.2649 30.5982 34.1026 31.6677C32.9403 32.7371 31.4485 33.5998 29.6332 34.2588C28.2522 34.7561 26.6406 35.0677 24.7983 35.1845L25.2866 34.7681L25.9876 34.169L26.8503 33.4321L28.6027 31.9313L28.6447 31.8953L24.349 28.4594C25.7599 28.4204 26.9372 27.9771 27.8868 27.1383C28.8813 26.2517 29.3786 25.1732 29.3786 23.9001C29.3786 22.7079 28.8693 21.6594 27.8508 20.7547C26.8323 19.8501 25.6221 19.3977 24.2172 19.3977H8.22374V25.332L11.1235 25.299L11.0845 25.344L9.32911 27.5517L7.84629 29.412L7.3011 30.098L4.39238 33.7526L4.35943 33.7945L4.33247 33.7586L3.03538 32.2248L2.40032 31.47L1.88508 30.8589L1.22005 30.068L0.228516 28.8938V12.6157H22.98C25.4993 12.6157 27.6681 12.9153 29.4864 13.5114C31.3047 14.1075 32.7935 14.9283 33.9558 15.9768C35.1211 17.0252 35.9809 18.2355 36.538 19.6134C37.0952 20.9914 37.3738 22.4592 37.3738 24.0229Z" fill="#212121"/>
<path d="M37.3738 24.0229C37.3738 25.3799 37.1192 26.7249 36.6099 28.061C36.1007 29.397 35.2649 30.5982 34.1026 31.6677C32.9403 32.7371 31.4485 33.5998 29.6332 34.2588C28.2522 34.7561 26.6406 35.0677 24.7983 35.1845L25.2866 34.7681L25.9876 34.169L26.8503 33.4321L28.6027 31.9313L28.6447 31.8953L24.349 28.4594C25.7599 28.4204 26.9372 27.9771 27.8868 27.1383C28.8813 26.2517 29.3786 25.1732 29.3786 23.9001C29.3786 22.7079 28.8693 21.6594 27.8508 20.7547C26.8323 19.8501 25.6221 19.3977 24.2172 19.3977H8.22374V25.332L11.1235 25.299L11.0845 25.344L9.32911 27.5517L7.84629 29.412L7.3011 30.098L4.39238 33.7526L4.35943 33.7945L4.33247 33.7586L3.03538 32.2248L2.40032 31.47L1.88508 30.8589L1.22005 30.068L0.228516 28.8938V12.6157H22.98C25.4993 12.6157 27.6681 12.9153 29.4864 13.5114C31.3047 14.1075 32.7935 14.9283 33.9558 15.9768C35.1211 17.0252 35.9809 18.2355 36.538 19.6134C37.0952 20.9914 37.3738 22.4592 37.3738 24.0229Z" fill="url(#paint2_linear_58_19975)"/>
<path d="M38.4249 32.3835L38.4189 32.3446C38.4189 32.3446 38.4249 32.3566 38.4249 32.3835Z" fill="white"/>
<defs>
<linearGradient id="paint0_linear_58_19975" x1="92.5" y1="-1.59098e-07" x2="102.833" y2="102.059" gradientUnits="userSpaceOnUse">
<stop offset="0.221999" stop-color="#FFCF02"/>
<stop offset="0.657708" stop-color="#FF9900"/>
</linearGradient>
<linearGradient id="paint1_linear_58_19975" x1="18.8012" y1="25.4937" x2="14" y2="68.5" gradientUnits="userSpaceOnUse">
<stop offset="0.145311" stop-color="#FFCF02"/>
<stop offset="1" stop-color="#FF9900"/>
</linearGradient>
<linearGradient id="paint2_linear_58_19975" x1="18.8012" y1="12.6157" x2="19.9095" y2="42.9668" gradientUnits="userSpaceOnUse">
<stop offset="0.145311" stop-color="#FFCF02"/>
<stop offset="1" stop-color="#FF9900"/>
</linearGradient>
</defs>
</svg>
