<svg width="93" height="33" viewBox="0 0 93 33" fill="none" xmlns="http://www.w3.org/2000/svg">
<path d="M33.0045 7.23306H37.6518V19.6606C37.6518 21.0969 37.31 22.3481 36.6264 23.4143C35.9428 24.4742 34.9895 25.2958 33.7665 25.8791C32.5435 26.4561 31.1229 26.7446 29.5048 26.7446C27.8679 26.7446 26.4379 26.4561 25.2149 25.8791C23.9919 25.2958 23.0417 24.4742 22.3644 23.4143C21.687 22.3481 21.3483 21.0969 21.3483 19.6606V7.23306H26.0051V19.2561C26.0051 19.9209 26.1494 20.5136 26.4379 21.0341C26.7327 21.5547 27.1435 21.9624 27.6703 22.2571C28.1971 22.5519 28.8086 22.6993 29.5048 22.6993C30.201 22.6993 30.8093 22.5519 31.3299 22.2571C31.8567 21.9624 32.2675 21.5547 32.5623 21.0341C32.8571 20.5136 33.0045 19.9209 33.0045 19.2561V7.23306ZM40.5706 26.5V7.23306H45.2274V22.7181H53.2427V26.5H40.5706ZM55.6535 26.5V7.23306H60.3103V15.3801H60.5643L66.9333 7.23306H72.418L65.588 15.8317L72.5403 26.5H66.9709L62.173 18.9268L60.3103 21.2787V26.5H55.6535ZM73.2952 7.23306H78.4977L82.5712 15.2954H82.7405L86.8141 7.23306H92.0165L84.9702 20.0651V26.5H80.3416V20.0651L73.2952 7.23306Z" fill="#FFCF02"/>
<path d="M33.0045 7.23306H37.6518V19.6606C37.6518 21.0969 37.31 22.3481 36.6264 23.4143C35.9428 24.4742 34.9895 25.2958 33.7665 25.8791C32.5435 26.4561 31.1229 26.7446 29.5048 26.7446C27.8679 26.7446 26.4379 26.4561 25.2149 25.8791C23.9919 25.2958 23.0417 24.4742 22.3644 23.4143C21.687 22.3481 21.3483 21.0969 21.3483 19.6606V7.23306H26.0051V19.2561C26.0051 19.9209 26.1494 20.5136 26.4379 21.0341C26.7327 21.5547 27.1435 21.9624 27.6703 22.2571C28.1971 22.5519 28.8086 22.6993 29.5048 22.6993C30.201 22.6993 30.8093 22.5519 31.3299 22.2571C31.8567 21.9624 32.2675 21.5547 32.5623 21.0341C32.8571 20.5136 33.0045 19.9209 33.0045 19.2561V7.23306ZM40.5706 26.5V7.23306H45.2274V22.7181H53.2427V26.5H40.5706ZM55.6535 26.5V7.23306H60.3103V15.3801H60.5643L66.9333 7.23306H72.418L65.588 15.8317L72.5403 26.5H66.9709L62.173 18.9268L60.3103 21.2787V26.5H55.6535ZM73.2952 7.23306H78.4977L82.5712 15.2954H82.7405L86.8141 7.23306H92.0165L84.9702 20.0651V26.5H80.3416V20.0651L73.2952 7.23306Z" fill="url(#paint0_linear_275_2195)"/>
<path d="M19.1691 21.0732C19.1691 21.8168 19.0377 22.5433 18.7749 23.2529C18.5121 23.964 18.087 24.5947 17.4995 25.1466C16.9121 25.6985 16.1438 26.1437 15.1915 26.4838C14.2423 26.8224 13.0922 26.9924 11.7411 26.9924H0V21.0114C0 19.8875 0.228792 18.9244 0.687922 18.1205L0.983189 18.4993L1.40212 19.0373L2.25391 20.1302L2.27401 20.1549L4.57121 17.0322L5.54821 15.7059L5.86821 15.2699C6.34898 15.2158 6.85604 15.188 7.38937 15.188H8.59826V13.656L12.5418 17.0013L8.59826 20.3466V18.6879H6.67672C5.95169 18.6879 5.34415 18.926 4.8572 19.4036C4.36869 19.8813 4.12599 20.4378 4.12599 21.0732V23.4925H12.3409C13.1416 23.4925 13.7925 23.2637 14.2918 22.8092C14.7927 22.3517 15.0431 21.7534 15.0431 21.0114C15.0431 20.7223 14.9797 20.5074 14.9673 20.4579C14.8189 19.9107 14.485 19.5428 14.2686 19.3464C14.8359 19.2722 15.663 19.0914 16.555 18.6199C17.127 18.3169 17.5722 17.9752 17.9014 17.68C18.2106 18.1066 18.4178 18.4885 18.5507 18.7667C18.7811 19.2444 19.1691 20.0359 19.1691 21.0732Z" fill="#FFCF02"/>
<path d="M19.1691 21.0732C19.1691 21.8168 19.0377 22.5433 18.7749 23.2529C18.5121 23.964 18.087 24.5947 17.4995 25.1466C16.9121 25.6985 16.1438 26.1437 15.1915 26.4838C14.2423 26.8224 13.0922 26.9924 11.7411 26.9924H0V21.0114C0 19.8875 0.228792 18.9244 0.687922 18.1205L0.983189 18.4993L1.40212 19.0373L2.25391 20.1302L2.27401 20.1549L4.57121 17.0322L5.54821 15.7059L5.86821 15.2699C6.34898 15.2158 6.85604 15.188 7.38937 15.188H8.59826V13.656L12.5418 17.0013L8.59826 20.3466V18.6879H6.67672C5.95169 18.6879 5.34415 18.926 4.8572 19.4036C4.36869 19.8813 4.12599 20.4378 4.12599 21.0732V23.4925H12.3409C13.1416 23.4925 13.7925 23.2637 14.2918 22.8092C14.7927 22.3517 15.0431 21.7534 15.0431 21.0114C15.0431 20.7223 14.9797 20.5074 14.9673 20.4579C14.8189 19.9107 14.485 19.5428 14.2686 19.3464C14.8359 19.2722 15.663 19.0914 16.555 18.6199C17.127 18.3169 17.5722 17.9752 17.9014 17.68C18.2106 18.1066 18.4178 18.4885 18.5507 18.7667C18.7811 19.2444 19.1691 20.0359 19.1691 21.0732Z" fill="url(#paint1_linear_275_2195)"/>
<path d="M19.1691 12.897C19.1691 13.5973 19.0377 14.2914 18.7749 14.9809C18.5121 15.6704 18.0808 16.2903 17.481 16.8421C16.8812 17.394 16.1113 17.8392 15.1745 18.1793C14.4618 18.436 13.6301 18.5967 12.6794 18.657L12.9314 18.4421L13.2931 18.133L13.7384 17.7527L14.6427 16.9782L14.6643 16.9596L12.4475 15.1865C13.1757 15.1664 13.7832 14.9376 14.2732 14.5048C14.7865 14.0472 15.0431 13.4906 15.0431 12.8336C15.0431 12.2184 14.7803 11.6773 14.2547 11.2105C13.7291 10.7436 13.1045 10.5102 12.3795 10.5102H4.12599V13.5726L5.62241 13.5556L5.60232 13.5788L4.69643 14.7181L3.93121 15.6781L3.64986 16.0321L2.14879 17.9181L2.13179 17.9397L2.11787 17.9212L1.4485 17.1297L1.12077 16.7401L0.854879 16.4248L0.51169 16.0166L0 15.4106V7.01025H11.7411C13.0412 7.01025 14.1604 7.16485 15.0987 7.47248C16.0371 7.78012 16.8054 8.20369 17.4052 8.74475C18.0066 9.28581 18.4502 9.91036 18.7378 10.6215C19.0253 11.3326 19.1691 12.0901 19.1691 12.897Z" fill="#FFCF02"/>
<path d="M19.7116 17.2115L19.7085 17.1914C19.7085 17.1914 19.7116 17.1976 19.7116 17.2115Z" fill="white"/>
<defs>
<linearGradient id="paint0_linear_275_2195" x1="47.3182" y1="0.5" x2="52.7089" y2="53.1636" gradientUnits="userSpaceOnUse">
<stop offset="0.253902" stop-color="#FFCF02"/>
<stop offset="0.725598" stop-color="#FF9900"/>
</linearGradient>
<linearGradient id="paint1_linear_275_2195" x1="7.20235" y1="13.656" x2="10.7127" y2="35.2639" gradientUnits="userSpaceOnUse">
<stop offset="0.253902" stop-color="#FFCF02"/>
<stop offset="0.725598" stop-color="#FF9900"/>
</linearGradient>
</defs>
</svg>
