<svg width="29" height="26" viewBox="0 0 29 26" fill="none" xmlns="http://www.w3.org/2000/svg">
<path d="M1.68018 1H3.52818C4.20818 1 4.80151 1.45733 4.97751 2.11333L5.48818 4.02933M5.48818 4.02933C12.9157 3.82118 20.3361 4.64687 27.5362 6.48267C26.4375 9.75467 25.1322 12.9333 23.6375 16H8.68018M5.48818 4.02933L8.68018 16M8.68018 16C7.61931 16 6.60189 16.4214 5.85175 17.1716C5.1016 17.9217 4.68018 18.9391 4.68018 20H25.6802M6.68018 24C6.68018 24.2652 6.57482 24.5196 6.38728 24.7071C6.19975 24.8946 5.94539 25 5.68018 25C5.41496 25 5.16061 24.8946 4.97307 24.7071C4.78553 24.5196 4.68018 24.2652 4.68018 24C4.68018 23.7348 4.78553 23.4804 4.97307 23.2929C5.16061 23.1054 5.41496 23 5.68018 23C5.94539 23 6.19975 23.1054 6.38728 23.2929C6.57482 23.4804 6.68018 23.7348 6.68018 24ZM23.6802 24C23.6802 24.2652 23.5748 24.5196 23.3873 24.7071C23.1997 24.8946 22.9454 25 22.6802 25C22.415 25 22.1606 24.8946 21.9731 24.7071C21.7855 24.5196 21.6802 24.2652 21.6802 24C21.6802 23.7348 21.7855 23.4804 21.9731 23.2929C22.1606 23.1054 22.415 23 22.6802 23C22.9454 23 23.1997 23.1054 23.3873 23.2929C23.5748 23.4804 23.6802 23.7348 23.6802 24Z" stroke="white" stroke-width="1.5" stroke-linecap="round" stroke-linejoin="round"/>
</svg>
