<svg width="21" height="21" viewBox="0 0 21 21" fill="none" xmlns="http://www.w3.org/2000/svg">
<path d="M19.2827 10.5629C19.2827 5.71186 15.3511 1.78027 10.5001 1.78027C5.64911 1.78027 1.71753 5.71186 1.71753 10.5629C1.71753 14.6797 4.55472 18.1378 8.37995 19.0882V13.2457H6.56854V10.5629H8.37995V9.40672C8.37995 6.41858 9.73164 5.03258 12.6683 5.03258C13.2241 5.03258 14.1847 5.14236 14.5792 5.25214V7.68108C14.3734 7.66049 14.0132 7.64677 13.5637 7.64677C12.1228 7.64677 11.5671 8.19225 11.5671 9.60913V10.5629H14.4351L13.9411 13.2457H11.5636V19.2803C15.9138 18.7554 19.2827 15.0537 19.2827 10.5629Z" fill="#212121"/>
</svg>
