<svg width="21" height="20" viewBox="0 0 21 20" fill="none" xmlns="http://www.w3.org/2000/svg">
<path d="M20.0999 10.2345C20.0999 9.57315 20.0359 8.89049 19.9292 8.25049H10.6919V12.0265H15.9826C15.7692 13.2425 15.0652 14.3092 14.0199 14.9918L17.1772 17.4452C19.0332 15.7172 20.0999 13.1998 20.0999 10.2345Z" fill="#4280EF"/>
<path d="M10.692 19.7918C13.3373 19.7918 15.556 18.9171 17.1773 17.4238L14.02 14.9918C13.1453 15.5891 12.0146 15.9304 10.692 15.9304C8.13198 15.9304 5.97731 14.2024 5.18798 11.8984L1.94531 14.3944C3.60931 17.7011 6.97998 19.7918 10.692 19.7918Z" fill="#34A353"/>
<path d="M5.18794 11.8772C4.78261 10.6612 4.78261 9.33856 5.18794 8.12256L1.94527 5.60522C0.558607 8.37856 0.558607 11.6426 1.94527 14.3946L5.18794 11.8772Z" fill="#F6B704"/>
<path d="M10.692 4.09056C12.0786 4.06923 13.444 4.60256 14.4466 5.56256L17.2413 2.74656C15.4706 1.08256 13.124 0.186559 10.692 0.207892C6.97998 0.207892 3.60931 2.29856 1.94531 5.60523L5.18798 8.12256C5.97731 5.79722 8.13198 4.09056 10.692 4.09056Z" fill="#E54335"/>
</svg>
