<svg width="18" height="21" viewBox="0 0 18 21" fill="none" xmlns="http://www.w3.org/2000/svg">
<g clip-path="url(#clip0_218_15756)">
<path d="M8.75391 6.03809C6.26953 6.03809 4.26562 8.04199 4.26562 10.5264C4.26562 13.0107 6.26953 15.0146 8.75391 15.0146C11.2383 15.0146 13.2422 13.0107 13.2422 10.5264C13.2422 8.04199 11.2383 6.03809 8.75391 6.03809ZM8.75391 13.4443C7.14844 13.4443 5.83594 12.1357 5.83594 10.5264C5.83594 8.91699 7.14453 7.6084 8.75391 7.6084C10.3633 7.6084 11.6719 8.91699 11.6719 10.5264C11.6719 12.1357 10.3594 13.4443 8.75391 13.4443ZM14.4727 5.85449C14.4727 6.43652 14.0039 6.90137 13.4258 6.90137C12.8438 6.90137 12.3789 6.43262 12.3789 5.85449C12.3789 5.27637 12.8477 4.80762 13.4258 4.80762C14.0039 4.80762 14.4727 5.27637 14.4727 5.85449ZM17.4453 6.91699C17.3789 5.51465 17.0586 4.27246 16.0312 3.24902C15.0078 2.22559 13.7656 1.90527 12.3633 1.83496C10.918 1.75293 6.58594 1.75293 5.14062 1.83496C3.74219 1.90137 2.5 2.22168 1.47266 3.24512C0.445313 4.26855 0.128906 5.51074 0.0585937 6.91309C-0.0234375 8.3584 -0.0234375 12.6904 0.0585937 14.1357C0.125 15.5381 0.445313 16.7803 1.47266 17.8037C2.5 18.8271 3.73828 19.1475 5.14062 19.2178C6.58594 19.2998 10.918 19.2998 12.3633 19.2178C13.7656 19.1514 15.0078 18.8311 16.0312 17.8037C17.0547 16.7803 17.375 15.5381 17.4453 14.1357C17.5273 12.6904 17.5273 8.3623 17.4453 6.91699ZM15.5781 15.6865C15.2734 16.4521 14.6836 17.042 13.9141 17.3506C12.7617 17.8076 10.0273 17.7021 8.75391 17.7021C7.48047 17.7021 4.74219 17.8037 3.59375 17.3506C2.82812 17.0459 2.23828 16.4561 1.92969 15.6865C1.47266 14.5342 1.57813 11.7998 1.57813 10.5264C1.57813 9.25293 1.47656 6.51465 1.92969 5.36621C2.23438 4.60059 2.82422 4.01074 3.59375 3.70215C4.74609 3.24512 7.48047 3.35059 8.75391 3.35059C10.0273 3.35059 12.7656 3.24902 13.9141 3.70215C14.6797 4.00684 15.2695 4.59668 15.5781 5.36621C16.0352 6.51855 15.9297 9.25293 15.9297 10.5264C15.9297 11.7998 16.0352 14.5381 15.5781 15.6865Z" fill="#212121"/>
</g>
<defs>
<clipPath id="clip0_218_15756">
<rect width="17.5" height="20" fill="white" transform="translate(0 0.530273)"/>
</clipPath>
</defs>
</svg>
