<svg width="14" height="13" viewBox="0 0 14 13" fill="none" xmlns="http://www.w3.org/2000/svg">
<path d="M7.69824 0.60726L9.15624 3.53826C9.21199 3.65123 9.29454 3.74884 9.39668 3.82257C9.49883 3.8963 9.61746 3.94392 9.74224 3.96126L12.9992 4.43126C13.1426 4.45102 13.2775 4.51067 13.3886 4.6034C13.4997 4.69614 13.5824 4.81823 13.6275 4.95574C13.6725 5.09326 13.678 5.24066 13.6433 5.38114C13.6086 5.52163 13.5351 5.64953 13.4312 5.75026L11.0742 8.03226C10.9837 8.11914 10.9158 8.22699 10.8768 8.34627C10.8377 8.46556 10.8286 8.59262 10.8502 8.71626L11.4062 11.9373C11.5152 12.5693 10.8482 13.0513 10.2762 12.7533L7.36224 11.2323C7.25057 11.1737 7.12635 11.143 7.00024 11.143C6.87413 11.143 6.74991 11.1737 6.63824 11.2323L3.72424 12.7523C3.15324 13.0513 2.48424 12.5693 2.59424 11.9373L3.15024 8.71626C3.17179 8.59262 3.16264 8.46558 3.12358 8.34631C3.08452 8.22704 3.01675 8.1192 2.92624 8.03226L0.570239 5.75026C0.466011 5.64982 0.392161 5.52207 0.357139 5.38163C0.322116 5.24119 0.327335 5.09372 0.372198 4.95611C0.417062 4.81849 0.499757 4.69628 0.610824 4.60347C0.721891 4.51065 0.856843 4.45097 1.00024 4.43126L4.25824 3.96126C4.38311 3.94382 4.50184 3.89618 4.60413 3.82246C4.70642 3.74875 4.78918 3.6512 4.84524 3.53826L6.30224 0.608259C6.36695 0.478514 6.46654 0.369374 6.58984 0.293088C6.71313 0.216802 6.85525 0.176392 7.00024 0.176392C7.14523 0.176392 7.28734 0.216802 7.41064 0.293088C7.53393 0.369374 7.63353 0.477515 7.69824 0.60726Z" fill="#FFC400"/>
</svg>
