<svg width="18" height="21" viewBox="0 0 18 21" fill="none" xmlns="http://www.w3.org/2000/svg">
<path d="M16.907 8.95529C15.4016 8.95852 13.9332 8.48858 12.7093 7.6119V13.7238C12.709 14.8558 12.363 15.9607 11.7177 16.8907C11.0724 17.8207 10.1586 18.5315 9.09834 18.928C8.03812 19.3246 6.88209 19.388 5.78486 19.1097C4.68764 18.8315 3.70153 18.2248 2.95842 17.3709C2.21531 16.517 1.75063 15.4566 1.62653 14.3315C1.50242 13.2064 1.72481 12.0701 2.26395 11.0748C2.80309 10.0795 3.63327 9.27253 4.64347 8.76181C5.65367 8.2511 6.79572 8.061 7.91689 8.21694V11.29C7.40423 11.1286 6.85369 11.1333 6.34388 11.3035C5.83407 11.4736 5.39105 11.8005 5.07808 12.2374C4.76511 12.6744 4.5982 13.199 4.60117 13.7365C4.60414 14.2739 4.77685 14.7967 5.09462 15.2301C5.4124 15.6636 5.85901 15.9855 6.37067 16.15C6.88233 16.3146 7.43289 16.3132 7.94373 16.1461C8.45457 15.9791 8.89957 15.6549 9.2152 15.2199C9.53082 14.7849 9.70093 14.2613 9.70124 13.7238V1.78027H12.7093C12.7077 2.03469 12.7294 2.28871 12.7743 2.53914C12.8789 3.09735 13.0963 3.62836 13.413 4.09973C13.7298 4.57109 14.1394 4.97291 14.6168 5.28062C15.2962 5.72939 16.0927 5.96833 16.907 5.9677V8.95529Z" fill="#212121"/>
</svg>
